<svg width="36" height="32" viewBox="0 0 36 32" fill="none" xmlns="http://www.w3.org/2000/svg">
<path d="M34.5149 10.5188C34.1629 10.1199 33.7301 9.80047 33.2452 9.58172C32.7603 9.36297 32.2344 9.24989 31.7024 9.25H22.9524V6.75C22.9524 5.0924 22.2939 3.50269 21.1218 2.33058C19.9497 1.15848 18.36 0.5 16.7024 0.5C16.4702 0.499834 16.2425 0.564361 16.0449 0.686346C15.8473 0.808331 15.6876 0.982951 15.5836 1.19063L9.68052 13H2.95239C2.28935 13 1.65347 13.2634 1.18463 13.7322C0.715785 14.2011 0.452393 14.837 0.452393 15.5V29.25C0.452393 29.913 0.715785 30.5489 1.18463 31.0178C1.65347 31.4866 2.28935 31.75 2.95239 31.75H29.8274C30.741 31.7503 31.6233 31.4171 32.3086 30.8129C32.9939 30.2088 33.4351 29.3752 33.5493 28.4688L35.4243 13.4688C35.4907 12.9407 35.444 12.4045 35.2872 11.8958C35.1304 11.3872 34.8671 10.9178 34.5149 10.5188ZM2.95239 15.5H9.20239V29.25H2.95239V15.5ZM32.943 13.1562L31.068 28.1562C31.03 28.4584 30.8829 28.7363 30.6545 28.9376C30.426 29.139 30.1319 29.2501 29.8274 29.25H11.7024V14.5453L17.4383 3.07188C18.2885 3.24202 19.0534 3.70149 19.6029 4.3721C20.1524 5.0427 20.4526 5.883 20.4524 6.75V10.5C20.4524 10.8315 20.5841 11.1495 20.8185 11.3839C21.0529 11.6183 21.3709 11.75 21.7024 11.75H31.7024C31.8798 11.7499 32.0551 11.7876 32.2168 11.8606C32.3785 11.9335 32.5228 12.04 32.6402 12.173C32.7575 12.3061 32.8452 12.4625 32.8974 12.632C32.9497 12.8016 32.9652 12.9803 32.943 13.1562Z" fill="#888888"/>
</svg>
